<?xml version="1.0" encoding="UTF-8" standalone="no"?>
<!-- Created with Inkscape (http://www.inkscape.org/) -->

<svg
   xmlns:dc="http://purl.org/dc/elements/1.1/"
   xmlns:cc="http://creativecommons.org/ns#"
   xmlns:rdf="http://www.w3.org/1999/02/22-rdf-syntax-ns#"
   xmlns:svg="http://www.w3.org/2000/svg"
   xmlns="http://www.w3.org/2000/svg"
   xmlns:sodipodi="http://sodipodi.sourceforge.net/DTD/sodipodi-0.dtd"
   xmlns:inkscape="http://www.inkscape.org/namespaces/inkscape"
   width="205.58125mm"
   height="33.866665mm"
   viewBox="0 0 205.58126 33.866665"
   version="1.1"
   id="svg8"
   inkscape:version="0.92.5 (2060ec1f9f, 2020-04-08)"
   sodipodi:docname="afreeca logo.svg">
  <defs
     id="defs2" />
  <sodipodi:namedview
     id="base"
     pagecolor="#ffffff"
     bordercolor="#666666"
     borderopacity="1.0"
     inkscape:pageopacity="0.0"
     inkscape:pageshadow="2"
     inkscape:zoom="1.1894531"
     inkscape:cx="397.91406"
     inkscape:cy="148.18461"
     inkscape:document-units="mm"
     inkscape:current-layer="layer1"
     showgrid="false"
     fit-margin-top="0"
     fit-margin-left="0"
     fit-margin-right="0"
     fit-margin-bottom="0"
     inkscape:window-width="1920"
     inkscape:window-height="1017"
     inkscape:window-x="1912"
     inkscape:window-y="70"
     inkscape:window-maximized="1" />
  <metadata
     id="metadata5">
    <rdf:RDF>
      <cc:Work
         rdf:about="">
        <dc:format>image/svg+xml</dc:format>
        <dc:type
           rdf:resource="http://purl.org/dc/dcmitype/StillImage" />
        <dc:title></dc:title>
      </cc:Work>
    </rdf:RDF>
  </metadata>
  <g
     inkscape:label="Layer 1"
     inkscape:groupmode="layer"
     id="layer1"
     transform="translate(-36.559043,-131.37425)">
    <g
       id="g905"
       transform="matrix(0.45268967,0,0,0.44631823,36.559043,131.37875)">
      <g
         id="g857"
         style="fill:#0545b1">
        <path
           id="path839"
           d="m 48,15.46 c 0,0 -0.23,-13.25 15,-13.4 h 14.17 c 3,0 5.63,2.13 5.63,4.74 0,2.61 -2.58,4.8 -5.63,4.8 h -6.58 c -4.37,0 -4,3.18 -4,3.18 V 21 h 7.94 c 3.15,0 5.73,2 5.73,4.62 0,2.62 -2.26,4.66 -5.26,4.66 H 66.6 V 61.7 c 0,4.42 -3.82,8.35 -9.14,8.35 C 52.14,70.05 48,66.47 48,62 Z"
           inkscape:connector-curvature="0" />
        <path
           id="path841"
           d="m 100.81,61.63 c 0,4.78 -3.83,8.42 -9.13,8.42 -5.3,0 -9.55,-3.64 -9.55,-8.05 V 33.69 c 0,0 0,-12.48 15.43,-12.48 h 12.22 c 6.4,0 6.4,4.9 6.4,4.9 0,0 0,4.71 -6,4.71 h -5.38 c -4,0 -4,3.09 -4,3.09 z"
           inkscape:connector-curvature="0" />
        <path
           id="path843"
           d="m 191.56,20.87 c 15.95,0 15.95,12.81 15.95,12.81 V 47 c 0,2.67 -2.59,4.63 -5.74,4.63 h -17.59 v 5.7 c 0,0 0.18,3 4.24,3 h 9.86 c 3.17,0 5.66,2.11 5.66,4.78 0,2.67 -2.57,5 -5.66,5 H 181 c -15.21,0 -15.21,-12.64 -15.21,-12.64 V 33.68 c 0,0 0.12,-12.67 15.32,-12.81 z m -3.06,10 c -4.14,0 -4.14,3 -4.14,3 v 8.25 h 11.77 v -8 c 0,0 0,-3.23 -3.73,-3.23 z"
           inkscape:connector-curvature="0" />
        <path
           id="path845"
           d="m 247.47,60.51 c 3.16,-0.08 6,2.38 6,5.05 0,2.67 -2.83,4.49 -6,4.49 h -24.84 c -5.23,0 -9,-3.16 -9,-7.64 V 28.94 c 0,-4.43 4.31,-8.07 9.55,-8.07 h 25.25 c 3.18,0 5.66,2.11 5.66,4.76 0,2.65 -2.48,4.64 -5.66,4.64 H 235 a 2.05,2.05 0 0 0 -2.31,2 v 26.19 c 0,0 -0.16,2 2.33,2 z"
           inkscape:connector-curvature="0" />
        <path
           id="path847"
           d="m 296.66,33.58 v 28.25 c 0,4.5 -4.34,8.22 -9.66,8.22 H 270.89 C 255,70.05 255,57.26 255,57.26 v -6.33 c 0,0 1,-11.56 15.88,-11.5 h 6.81 v -5.79 c 0,0 0,-3 -3.74,-3 h -8.64 c -3.16,0 -6.22,-1.86 -6.22,-4.53 0,-2.67 2.9,-5.23 6,-5.23 h 16.3 c 15.27,0.12 15.27,12.7 15.27,12.7 z m -26.54,26.78 h 7.55 V 49.09 h -7.55 c -4.12,0 -3.72,5.63 -3.72,5.63 0,0 -0.4,5.64 3.72,5.64 z"
           inkscape:connector-curvature="0" />
        <path
           id="path849"
           d="m 341,8.48 c 0,0 0,-4.32 -5.72,-4.32 h -39.67 c -5.73,0 -5.73,4.19 -5.73,4.19 0,0 0,4.15 5.36,4.15 h 8.3 c 3.57,0 3.57,2.71 3.57,2.71 v 25.58 c 0,4.2 3.42,7.41 8.17,7.41 4.75,0 8.53,-3.21 8.53,-7.1 V 15.17 c 0.06,-0.59 0.51,-2.55 3.55,-2.55 h 8.29 C 341,12.62 341,8.48 341,8.48 Z"
           inkscape:connector-curvature="0" />
        <path
           id="path851"
           d="m 41.68,33.56 v 28.27 c 0,4.5 -4.35,8.22 -9.66,8.22 H 15.89 C 0,70.05 0,57.25 0,57.25 v -6.33 c 0,0 1,-11.56 15.89,-11.51 h 6.81 v -5.79 c 0,0 0,-3 -3.74,-3 h -8.64 c -3.16,0 -6.24,-1.85 -6.24,-4.53 0,-2.68 2.92,-5.23 6.07,-5.23 h 16.31 c 15.22,0.08 15.22,12.7 15.22,12.7 z M 15.12,60.35 h 7.55 V 49.09 h -7.55 c -4.27,0 -3.72,5.63 -3.72,5.63 0,0 -0.4,5.63 3.72,5.63 z"
           inkscape:connector-curvature="0" />
        <path
           id="path853"
           d="m 143.75,20.87 c 15.95,0 15.95,12.81 15.95,12.81 V 47 c 0,2.67 -2.59,4.63 -5.74,4.63 h -17.58 v 5.7 c 0,0 0.17,3 4.23,3 h 9.86 c 3.17,0 5.66,2.11 5.66,4.78 0,2.67 -2.57,5 -5.66,5 h -17.32 c -15.21,0 -15.21,-12.64 -15.21,-12.64 V 33.68 c 0,0 0.12,-12.67 15.32,-12.81 z m -3.06,10 c -4.14,0 -4.14,3 -4.14,3 v 8.25 h 11.77 v -8 c 0,0 0,-3.23 -3.73,-3.23 z"
           inkscape:connector-curvature="0" />
        <path
           id="path855"
           d="m 375.9,5.58 c -3.73,-2.51 -9,-1.21 -11.76,2.91 l -15,20.16 L 343.69,17 c -1,-2.19 -5.32,-3.23 -7.61,-2.17 -2.29,1.06 -3.71,4.35 -2.7,6.54 l 9.92,22.79 c 0.78,1.66 2.54,3 5.33,3.71 a 9.82,9.82 0 0 0 10,-4.17 l 19,-26.11 c 2.82,-4.15 2.01,-9.51 -1.73,-12.01 z"
           inkscape:connector-curvature="0" />
      </g>
      <path
         id="path859"
         d="m 435.22,1.27 a 2.33,2.33 0 0 1 -1.36,3.25 l -14.11,6.41 a 4.66,4.66 0 0 1 -4.37,-0.1 l -9.12,-4.32 a 2.34,2.34 0 0 1 -0.61,-3.44 v 0 A 2.3,2.3 0 0 1 409,2.81 l 7,5.64 A 2.47,2.47 0 0 0 418.19,8.97 3,3 0 0 0 419,8.6 l 12.91,-8.27 a 2.35,2.35 0 0 1 3.31,0.94 z"
         inkscape:connector-curvature="0"
         style="fill:#0545b1" />
      <g
         id="g875"
         clip-path="url(#afLogo)"
         class="logo_wrap">
        <path
           id="path861"
           d="m 453.24,27.38 c -1,-7.4 -2.7,-11.63 -12.33,-13.81 A 105.8,105.8 0 0 0 420.77,11 c -1.09,-0.05 -2.19,-0.05 -3.29,0 a 105.71,105.71 0 0 0 -20.13,2.58 c -7.13,1.62 -9.92,4.35 -11.29,8.67 -0.24,0.76 2.06,-0.45 1.89,0.41 -0.17,0.86 0.53,12.21 0.4,13.17 -1,7.29 -4.24,7.61 -4.24,7.87 A 134.72,134.72 0 0 0 385,60 c 1,7.4 2.71,11.62 12.34,13.81 8.68,2 15,1.83 20.13,2.06 h 3.29 c 5.16,-0.23 11.45,-0.1 20.14,-2.06 9.63,-2.19 11.34,-6.41 12.33,-13.81 a 132.48,132.48 0 0 0 0.9,-16.31 c 0,-0.14 -1.45,-3 -2.88,-6.78 -0.14,-0.37 -1.08,1.57 -1.22,1.19 -1,-2.74 -1.09,-8.12 -1.41,-10.85 -0.04,-0.44 4.68,0.56 4.62,0.13 z"
           inkscape:connector-curvature="0"
           style="fill:#0545b1" />
        <path
           id="path863"
           d="m 428.87,33.56 c -0.07,-2.56 -0.1,-5.08 0,-7.61 a 5.56,5.56 0 0 1 2.58,-4.79 6.39,6.39 0 0 1 5.83,-0.29 c 3,1.33 6.82,3.37 6.82,3.37 2.21,1.2 4.07,2.21 6.39,3.72 a 2.5,2.5 0 0 1 0.35,0.21 5.63,5.63 0 0 1 0.07,9.45 c -2.2,1.46 -4.11,2.85 -6.37,4.25 a 60,60 0 0 1 -5.93,3.31 7.37,7.37 0 0 1 -6.32,0.32 6.14,6.14 0 0 1 -3,-4.94 c 0,0 -0.29,-2.79 -0.42,-7 z"
           inkscape:connector-curvature="0"
           style="fill:#00bbed" />
        <path
           id="path865"
           d="m 432.75,53.93 c -7.31,6.8 -23.16,6.81 -30.27,0 a 1.44,1.44 0 0 0 -2,2.07 c 8.21,7.84 25.8,7.85 34.21,0 a 1.432873,1.432873 0 1 0 -1.95,-2.1 z"
           inkscape:connector-curvature="0"
           style="fill:#ffffff" />
        <path
           id="path867"
           d="m 426.91,42.6 a 0.2,0.2 0 0 1 0,-0.07 V 42.1 l -1,-10.77 v -0.3 a 5,5 0 0 0 -0.13,-0.69 5.55,5.55 0 0 0 -4.43,-4.13 5.64,5.64 0 0 0 -0.93,-0.08 h -5.53 a 5.29,5.29 0 0 0 -0.8,0.06 5.56,5.56 0 0 0 -4.56,4.14 c 0,0.18 -0.08,0.37 -0.11,0.55 l -0.05,0.58 -1,10.7 v 0.25 a 1.15,1.15 0 0 0 0,0.19 1.48,1.48 0 0 0 0,0.21 5.56,5.56 0 0 0 4.14,5.37 5.45,5.45 0 0 0 1.41,0.19 h 7.51 a 5.5,5.5 0 0 0 0.91,-0.08 5.57,5.57 0 0 0 4.64,-5.48 z"
           inkscape:connector-curvature="0"
           style="fill:#1ac62f" />
        <path
           id="path869"
           d="m 406.11,36.67 c -2.13,7.11 -8.5,10.73 -15.54,9.51 -7.31,-1.26 -12.59,-11.6 -8.95,-18 3.12,-5.46 9.92,-9.5 17,-7.32 7.55,2.35 9.64,8.63 7.49,15.81 z"
           inkscape:connector-curvature="0"
           style="fill:#f2338a" />
        <circle
           id="circle871"
           r="4.6900001"
           cy="33.27"
           cx="439.10001"
           style="fill:#1a1919" />
        <circle
           id="circle873"
           r="4.6900001"
           cy="33.27"
           cx="395.45999"
           style="fill:#1a1919" />
      </g>
    </g>
  </g>
  <style
     id="style834">.logo_wrap{clip-path:url(#afLogo);}</style>
</svg>
