<svg xmlns="http://www.w3.org/2000/svg" viewBox="0 0 380.925 85.039"><path d="M118.946 13.279a15.213 15.213 0 0 0-10.74-10.74C98.732 0 60.742 0 60.742 0S22.753 0 13.279 2.539a15.213 15.213 0 0 0-10.74 10.74C0 22.753 0 42.52 0 42.52s0 19.766 2.539 29.24a15.214 15.214 0 0 0 10.74 10.74c9.474 2.538 47.463 2.538 47.463 2.538s37.99 0 47.464-2.538a15.214 15.214 0 0 0 10.74-10.741c2.539-9.474 2.539-29.24 2.539-29.24s0-19.766-2.539-29.24Z" style="fill:red"/><path d="M48.594 60.742 80.155 42.52 48.594 24.297v36.445z" style="fill:#fff"/><path d="M176.336 77.364a13.234 13.234 0 0 1-5.126-7.558 49.466 49.466 0 0 1-1.521-13.64v-7.732a44.825 44.825 0 0 1 1.738-13.814 13.858 13.858 0 0 1 5.429-7.6 17.589 17.589 0 0 1 9.687-2.389q5.909 0 9.47 2.432a13.947 13.947 0 0 1 5.212 7.6 46.618 46.618 0 0 1 1.651 13.77v7.732a47.42 47.42 0 0 1-1.607 13.683 13.43 13.43 0 0 1-5.213 7.558q-3.606 2.388-9.773 2.389-6.343.005-9.947-2.431Zm13.464-8.341q1-2.605 1-8.513V43.916a25.676 25.676 0 0 0-1-8.383 3.575 3.575 0 0 0-3.518-2.65 3.525 3.525 0 0 0-3.432 2.65 25.649 25.649 0 0 0-1 8.383V60.51q0 5.908.956 8.513a3.493 3.493 0 0 0 3.475 2.607 3.568 3.568 0 0 0 3.519-2.607ZM360.856 56.292v2.694a70.748 70.748 0 0 0 .3 7.688 7.286 7.286 0 0 0 1.26 3.736 3.586 3.586 0 0 0 2.954 1.173 3.718 3.718 0 0 0 3.692-2.085q1-2.085 1.086-6.95l10.338.608a16.272 16.272 0 0 1 .087 1.911q0 7.386-4.039 11.034t-11.421 3.649q-8.86 0-12.424-5.561t-3.562-17.2v-9.3q0-11.988 3.693-17.505t12.641-5.517q6.168 0 9.469 2.259a12.124 12.124 0 0 1 4.648 7.037 50.844 50.844 0 0 1 1.347 13.2v9.122Zm1.52-22.414a7.336 7.336 0 0 0-1.216 3.692 71.921 71.921 0 0 0-.3 7.776v3.823h8.774v-3.823a65.036 65.036 0 0 0-.346-7.776 7.455 7.455 0 0 0-1.26-3.735 3.484 3.484 0 0 0-2.824-1.086 3.418 3.418 0 0 0-2.828 1.129ZM147.142 55.3 133.5 6.036h11.9l4.778 22.327q1.826 8.256 2.693 14.074h.348q.607-4.17 2.693-13.987l4.952-22.414h11.9L158.957 55.3v23.627h-11.815ZM241.586 25.672v53.255H232.2l-1.043-6.516h-.26q-3.82 7.389-11.465 7.389-5.3 0-7.819-3.475t-2.519-10.86V25.672h11.989v39.094a11.935 11.935 0 0 0 .782 5.083 2.7 2.7 0 0 0 2.606 1.52 5.314 5.314 0 0 0 3-.956 5.921 5.921 0 0 0 2.129-2.432V25.672ZM303.082 25.672v53.255H293.7l-1.043-6.516h-.26q-3.824 7.389-11.469 7.389-5.3 0-7.819-3.475t-2.519-10.86V25.672h11.989v39.094a11.935 11.935 0 0 0 .782 5.083 2.7 2.7 0 0 0 2.606 1.52 5.314 5.314 0 0 0 3-.956 5.921 5.921 0 0 0 2.129-2.432V25.672Z" style="fill:#282828"/><path d="M274.164 15.681h-11.9v63.246h-11.73V15.681h-11.9V6.037h35.532ZM342.761 34.185q-1.088-5.037-3.519-7.3a9.453 9.453 0 0 0-6.689-2.258 11.1 11.1 0 0 0-6.168 1.867 12.7 12.7 0 0 0-4.431 4.909h-.088V3.344h-11.553v75.583h9.9l1.217-5.039h.26a10.169 10.169 0 0 0 4.17 4.257 12.369 12.369 0 0 0 6.169 1.563 9.44 9.44 0 0 0 8.948-5.6q2.866-5.6 2.867-17.506v-8.43a69.992 69.992 0 0 0-1.083-13.987Zm-10.99 21.723a67.37 67.37 0 0 1-.478 9.121 9.865 9.865 0 0 1-1.607 4.692 3.715 3.715 0 0 1-3.04 1.39 5.561 5.561 0 0 1-2.737-.7 5.238 5.238 0 0 1-2.042-2.085V38.1a7.577 7.577 0 0 1 2.085-3.562 4.61 4.61 0 0 1 3.215-1.39 3.242 3.242 0 0 1 2.823 1.433 11.03 11.03 0 0 1 1.39 4.822 89.865 89.865 0 0 1 .391 9.643Z" style="fill:#282828"/></svg>