<?xml version="1.0" standalone="no"?>
<!DOCTYPE svg PUBLIC "-//W3C//DTD SVG 20010904//EN"
 "http://www.w3.org/TR/2001/REC-SVG-20010904/DTD/svg10.dtd">
<svg version="1.0" xmlns="http://www.w3.org/2000/svg"
 width="1280.000000pt" height="538.000000pt" viewBox="0 0 1280.000000 538.000000"
 preserveAspectRatio="xMidYMid meet">
<metadata>
Created by potrace 1.15, written by Peter Selinger 2001-2017
</metadata>
<g transform="translate(0.000000,538.000000) scale(0.100000,-0.100000)"
fill="#e91e63" stroke="none">
<path d="M7080 4550 c-1349 -27 -1648 -54 -1860 -166 -146 -77 -290 -232 -354
-381 -99 -232 -126 -521 -126 -1338 0 -861 24 -1071 149 -1330 173 -355 397
-447 1181 -485 801 -39 2933 -39 3860 0 579 24 774 66 957 206 172 132 271
317 323 605 77 429 93 1248 35 1821 -56 548 -210 803 -571 942 -149 57 -285
75 -729 96 -662 31 -2093 46 -2865 30z m-561 -719 c53 -11 80 -36 88 -84 7
-47 -12 -94 -46 -111 -16 -8 -86 -16 -184 -20 -111 -4 -167 -11 -188 -21 -60
-32 -57 11 -65 -979 -8 -1009 -4 -959 -74 -983 -76 -26 -168 -8 -203 39 -19
26 -20 50 -26 941 -6 908 -6 916 -27 944 -33 44 -61 52 -212 61 -129 7 -144
10 -167 32 -55 51 -35 153 35 177 41 14 998 17 1069 4z m1820 -17 c46 -32 51
-66 51 -321 1 -272 7 -318 45 -350 42 -36 87 -30 195 26 211 109 303 108 416
-4 117 -116 126 -182 122 -860 l-3 -460 -24 -45 c-37 -70 -79 -118 -129 -148
-42 -24 -56 -27 -137 -27 -105 1 -158 20 -227 83 -50 45 -65 52 -135 59 -58 5
-70 -3 -136 -90 -47 -62 -157 -71 -211 -17 l-21 21 -3 992 c-2 545 0 1016 3
1046 10 78 44 111 117 111 33 0 62 -6 77 -16z m1876 -579 c184 -48 311 -155
359 -302 26 -79 46 -217 46 -320 0 -88 -1 -94 -29 -125 l-29 -33 -284 -7
c-156 -4 -304 -12 -329 -18 -51 -12 -81 -38 -99 -85 -16 -41 -4 -341 17 -415
27 -97 107 -150 225 -150 101 0 176 48 197 125 6 22 17 66 26 98 21 78 52 97
153 97 69 0 76 -2 104 -31 29 -28 30 -34 25 -84 -8 -83 -51 -166 -116 -228
-101 -96 -181 -128 -356 -141 -170 -13 -290 29 -406 141 -79 76 -114 138 -129
233 -13 85 -13 806 0 889 21 128 104 234 237 304 123 65 265 83 388 52z
m-3326 -29 c52 -27 54 -40 62 -466 5 -217 13 -495 18 -618 13 -294 20 -309
154 -352 45 -14 48 -36 10 -72 -60 -56 -110 -73 -215 -73 -93 0 -97 1 -135 31
-51 42 -70 77 -82 153 -11 69 -35 1095 -30 1254 4 97 5 99 37 128 28 25 40 29
93 29 33 0 72 -6 88 -14z m743 -15 l33 -29 3 -714 c2 -493 0 -725 -8 -750 -13
-47 -50 -68 -118 -68 -69 0 -107 16 -138 58 -15 20 -47 55 -72 77 -45 41 -45
41 -29 71 9 17 23 37 32 44 9 8 26 32 38 54 22 41 22 47 25 621 2 397 6 589
14 608 15 39 53 56 125 57 55 0 67 -3 95 -29z"/>
<path d="M8670 3030 c-39 -13 -66 -31 -93 -61 l-38 -43 4 -440 c4 -446 12
-564 43 -663 24 -76 40 -84 168 -84 163 0 210 28 252 151 18 51 19 89 19 515
-1 497 -1 499 -56 577 -48 66 -183 88 -299 48z"/>
<path d="M10070 3089 c-49 -20 -88 -59 -114 -116 -26 -53 -28 -68 -29 -194 -2
-124 0 -139 18 -159 32 -35 70 -50 158 -61 95 -12 189 1 250 34 l37 21 0 183
0 184 -44 45 c-24 24 -60 51 -80 59 -40 17 -157 19 -196 4z"/>
<path d="M397 4058 c-87 -12 -117 -66 -91 -164 8 -31 18 -63 23 -73 21 -38
442 -1124 458 -1178 13 -48 17 -133 22 -508 5 -412 8 -453 24 -478 28 -44 57
-49 254 -45 166 3 184 5 210 24 55 41 55 42 65 529 7 357 12 461 24 504 8 29
75 203 148 385 198 492 316 802 329 861 8 41 8 59 -3 84 -23 56 -49 62 -257
61 -103 0 -204 -5 -225 -10 -61 -17 -83 -57 -164 -306 -77 -232 -101 -284
-134 -284 -34 0 -58 49 -136 282 -83 247 -105 287 -167 307 -40 12 -315 19
-380 9z"/>
<path d="M2215 3439 c-145 -15 -260 -71 -351 -172 -92 -102 -118 -186 -135
-437 -16 -225 -6 -730 15 -825 46 -205 190 -362 386 -419 123 -37 378 -30 503
13 122 42 254 156 307 264 17 35 34 92 40 132 13 91 13 929 0 1020 -29 203
-189 368 -398 410 -89 17 -268 25 -367 14z m193 -445 c42 -29 54 -70 64 -228
12 -182 4 -613 -12 -678 -15 -58 -49 -92 -94 -92 -39 0 -60 15 -84 58 -15 28
-17 74 -16 431 1 431 4 468 51 504 31 25 61 27 91 5z"/>
<path d="M3344 3401 c-12 -5 -31 -22 -43 -38 l-23 -28 5 -725 c3 -482 8 -752
16 -804 16 -104 44 -169 94 -211 63 -54 120 -68 251 -63 99 4 121 8 202 41 50
20 102 37 116 37 13 0 46 -15 74 -32 l49 -33 192 0 193 0 27 28 28 27 0 875 0
875 -28 27 -27 28 -195 0 -195 0 -27 -28 -28 -27 -5 -618 c-5 -579 -6 -619
-24 -655 -44 -88 -139 -118 -172 -55 -15 29 -18 104 -26 643 -5 335 -11 625
-14 643 -3 18 -18 47 -34 65 l-28 32 -179 2 c-98 1 -188 -2 -199 -6z"/>
</g>
</svg>
